<?xml version="1.0" encoding="UTF-8"?>
<svg id="Layer_1" data-name="Layer 1" xmlns="http://www.w3.org/2000/svg" viewBox="0 0 846.09 350.04">
  <defs>
    <style>
      .cls-1 {
        fill: #91d789;
      }

      .cls-2 {
        fill: #0d2c26;
      }
    </style>
  </defs>
  <path class="cls-1" d="M59.31,350.04c-6.47-7.4-12.97-14.25-19.08-20.7-27.52-29.02-61.77-65.13-22.45-105.75,28.11-28.99,66.36-5.69,94.31,11.32,35.17,21.41,46.74,24.8,53.8,15.71,4.76-6.13-16.55-33.04-26.79-45.98-25.14-31.75-59.57-75.23-23.81-111.93,34.72-35.61,73.81-10.08,99.68,6.81,31.24,20.38,38.28,20.98,46.36,12.53,9.95-10.41-29.58-69.53-42.57-88.96L253.29,0c33.3,49.8,71.04,106.25,38.07,140.74-34.28,35.86-73.27,10.39-99.08-6.45-29.93-19.54-38.31-21.76-47.23-12.61-8.75,8.98,1.61,25.59,26.62,57.17,23.06,29.13,51.78,65.38,27.04,97.23-31.76,40.87-77.76,12.83-108.21-5.71-14.16-8.62-37.92-23.12-42.87-17.91-8.95,9.24-11.64,12.03,22.74,48.28,6.48,6.84,13.38,14.11,20.23,21.98l-31.29,27.32Z"/>
  <g>
    <path class="cls-2" d="M446.13,138.29c-18.69,0-24.67,10.22-24.92,24.18v8.72h25.42v25.42h-25.42v90.96h-32.64v-90.96h-21.93v-25.42h21.93v-8.47c0-34.89,17.94-54.83,51.08-54.83h13.95v30.4h-7.47Z"/>
    <path class="cls-2" d="M546.31,171.19h32.65v116.38h-32.65v-16.69c-7.73,11.96-22.68,19.69-38.38,19.69-32.15,0-56.07-24.92-56.07-61.05s23.42-61.31,56.82-61.31c14.95,0,29.9,6.48,37.63,18.44v-15.46ZM545.31,229.5c0-17.69-14.21-30.9-30.41-30.9s-29.66,13.96-29.66,30.9,12.71,30.65,29.91,30.65,30.16-13.95,30.16-30.65Z"/>
    <path class="cls-2" d="M681.86,171.19h35.64l-49.09,116.38h-29.16l-49.08-116.38h35.39l28.41,74.27,27.89-74.27Z"/>
    <path class="cls-2" d="M813.44,171.19h32.65v116.38h-32.65v-16.69c-7.73,11.96-22.68,19.69-38.38,19.69-32.15,0-56.07-24.92-56.07-61.05s23.42-61.31,56.82-61.31c14.95,0,29.9,6.48,37.63,18.44v-15.46ZM812.45,229.5c0-17.69-14.21-30.9-30.41-30.9s-29.66,13.96-29.66,30.9,12.71,30.65,29.91,30.65,30.16-13.95,30.16-30.65Z"/>
  </g>
</svg>