<?xml version="1.0" encoding="utf-8"?>
<!-- Generator: Adobe Illustrator 28.0.0, SVG Export Plug-In . SVG Version: 6.00 Build 0)  -->
<svg version="1.1" id="Layer_1" xmlns="http://www.w3.org/2000/svg" xmlns:xlink="http://www.w3.org/1999/xlink" x="0px" y="0px"
	 viewBox="0 0 1920 1080" style="enable-background:new 0 0 1920 1080;" xml:space="preserve">
<style type="text/css">
	.st0{fill:#F4F1ED;}
	.st1{fill:#91D789;}
</style>
<g>
	<g>
		<path class="st0" d="M825.58,606.58c-14.96,0-19.75,8.18-19.95,19.35v6.98h20.35v20.35h-20.35v72.81H779.5v-72.81h-17.55v-20.35
			h17.55v-6.78c0-27.93,14.36-43.89,40.89-43.89h11.17v24.34H825.58z"/>
		<path class="st0" d="M905.78,632.91h26.13v93.16h-26.13V712.7c-6.18,9.58-18.15,15.76-30.72,15.76
			c-25.73,0-44.88-19.95-44.88-48.87c0-28.92,18.75-49.07,45.48-49.07c11.97,0,23.94,5.19,30.12,14.76V632.91z M904.98,679.59
			c0-14.16-11.37-24.74-24.34-24.74c-13.56,0-23.74,11.17-23.74,24.74c0,12.97,10.17,24.54,23.94,24.54
			C894.01,704.12,904.98,692.95,904.98,679.59z"/>
		<path class="st0" d="M1014.29,632.91h28.53l-39.3,93.16h-23.34l-39.3-93.16h28.33l22.74,59.44L1014.29,632.91z"/>
		<path class="st0" d="M1119.61,632.91h26.13v93.16h-26.13V712.7c-6.18,9.58-18.15,15.76-30.72,15.76
			c-25.73,0-44.88-19.95-44.88-48.87c0-28.92,18.75-49.07,45.48-49.07c11.97,0,23.94,5.19,30.12,14.76V632.91z M1118.82,679.59
			c0-14.16-11.37-24.74-24.34-24.74c-13.56,0-23.74,11.17-23.74,24.74c0,12.97,10.17,24.54,23.94,24.54
			C1107.84,704.12,1118.82,692.95,1118.82,679.59z"/>
	</g>
	<path class="st1" d="M912.12,488.21c-43.66,0-54.04-47.36-61.71-82.4c-6.33-28.9-11.65-49.36-22.42-49.43c-0.16,0-0.32,0-0.48,0
		c-19.08,0-22.35,7.74-24.77,56.99c-0.49,9.89-0.99,20.11-1.98,31.02l-33.12-3.01c0.93-10.22,1.42-20.09,1.89-29.64
		c2.04-41.54,4.36-88.61,58.07-88.61c0.2,0,0.4,0,0.6,0c38.18,0.25,47.33,42,54.68,75.56c9.4,42.89,15.58,57.81,32.56,56.09
		c12.06-1.24,16.44-32.67,19.96-57.92c5.56-39.95,13.17-94.59,61.76-94.59c0.21,0,0.42,0,0.63,0c47.84,0.47,56,44.24,61.96,76.2
		c6.88,36.87,11.79,48.34,29.08,48.34c19.18,0,33.72-65.44,41.54-100.59l32.45,7.22c-13.19,59.35-28.15,126.62-73.99,126.62
		c-47.68,0-55.82-43.63-61.76-75.49c-6.95-37.26-11.94-48.89-29.61-49.06c-0.06,0-0.14,0-0.2,0c-16.9,0-22.6,20.39-28.94,65.93
		c-5.39,38.67-11.49,82.51-49.5,86.41C916.52,488.09,914.27,488.21,912.12,488.21z"/>
</g>
</svg>
